<svg xmlns="http://www.w3.org/2000/svg" viewBox="0 0 64 64">
  <title>Maison Saint-Jules</title>
  <rect width="64" height="64" rx="8" fill="#171513"/>
  <rect x="5" y="5" width="54" height="54" rx="5" fill="none" stroke="#B89A5B" stroke-width="1.5"/>
  <path d="M14 46V18h2.8l6.2 15.4L29.2 18H32v28h-3V25.6l-5.1 12.2h-1.8L17 25.6V46h-3Z" fill="#F3F0E8"/>
  <path d="M37 45.8c2.3 1.1 4.8 1.6 7.3 1.6 4.5 0 7.7-2.4 7.7-6.4 0-3.3-2-5.2-6.2-6.7l-2.2-.8c-2.3-.8-3.2-1.9-3.2-3.5 0-2.2 1.8-3.5 4.5-3.5 2.2 0 4.2.6 5.6 1.4v-3.1c-1.6-.8-3.7-1.2-5.8-1.2-4.8 0-7.8 2.7-7.8 6.5 0 3.1 1.8 5 5.8 6.4l2.1.8c2.6.9 3.7 2.1 3.7 3.9 0 2.4-1.9 3.7-4.8 3.7-2.8 0-5.2-.8-6.7-1.9v3.3Z" fill="#F3F0E8"/>
  <path d="M23 52H41" stroke="#B89A5B" stroke-width="1.5" stroke-linecap="round"/>
</svg>
